<svg width="10" height="7" viewBox="0 0 10 7" fill="none" xmlns="http://www.w3.org/2000/svg">
<rect width="10" height="7" fill="#F5F5F5"/>
<g id="Homepage - 1" clip-path="url(#clip0_1_6)">
<rect width="1920" height="9954" transform="translate(-1014 -160)" fill="white"/>
<g id="Banner">
<g id="Menu">
<g id="Content">
<g id="Menu_2">
<path id="Vector" d="M1 1.5L5 5.5L9 1.5" stroke="#37393F" stroke-width="1.5" stroke-linecap="round" stroke-linejoin="round"/>
<path id="Home About Us Pages Services Blog Contact Us" d="M-267.132 8.5V-4.59091H-265.546V1.23864H-258.566V-4.59091H-256.981V8.5H-258.566V2.64489H-265.546V8.5H-267.132ZM-250.023 8.70455C-250.91 8.70455 -251.687 8.49361 -252.356 8.07173C-253.021 7.64986 -253.541 7.05966 -253.916 6.30114C-254.287 5.54261 -254.472 4.65625 -254.472 3.64205C-254.472 2.61932 -254.287 1.72656 -253.916 0.963778C-253.541 0.200994 -253.021 -0.391335 -252.356 -0.81321C-251.687 -1.23509 -250.91 -1.44602 -250.023 -1.44602C-249.137 -1.44602 -248.361 -1.23509 -247.697 -0.81321C-247.028 -0.391335 -246.508 0.200994 -246.137 0.963778C-245.762 1.72656 -245.574 2.61932 -245.574 3.64205C-245.574 4.65625 -245.762 5.54261 -246.137 6.30114C-246.508 7.05966 -247.028 7.64986 -247.697 8.07173C-248.361 8.49361 -249.137 8.70455 -250.023 8.70455ZM-250.023 7.34943C-249.35 7.34943 -248.796 7.17685 -248.361 6.83168C-247.927 6.48651 -247.605 6.03267 -247.396 5.47017C-247.187 4.90767 -247.083 4.2983 -247.083 3.64205C-247.083 2.9858 -247.187 2.37429 -247.396 1.80753C-247.605 1.24077 -247.927 0.78267 -248.361 0.433238C-248.796 0.0838064 -249.35 -0.0909095 -250.023 -0.0909095C-250.697 -0.0909095 -251.251 0.0838064 -251.685 0.433238C-252.12 0.78267 -252.442 1.24077 -252.65 1.80753C-252.859 2.37429 -252.964 2.9858 -252.964 3.64205C-252.964 4.2983 -252.859 4.90767 -252.65 5.47017C-252.442 6.03267 -252.12 6.48651 -251.685 6.83168C-251.251 7.17685 -250.697 7.34943 -250.023 7.34943ZM-243.272 8.5V-1.31818H-241.814V0.215909H-241.686C-241.482 -0.308239 -241.152 -0.715199 -240.696 -1.00497C-240.24 -1.29901 -239.692 -1.44602 -239.053 -1.44602C-238.405 -1.44602 -237.866 -1.29901 -237.436 -1.00497C-237.001 -0.715199 -236.662 -0.308239 -236.419 0.215909H-236.317C-236.066 -0.291193 -235.689 -0.693892 -235.186 -0.992188C-234.683 -1.29474 -234.08 -1.44602 -233.377 -1.44602C-232.499 -1.44602 -231.781 -1.17116 -231.223 -0.621449C-230.664 -0.0759946 -230.385 0.774147 -230.385 1.92898V8.5H-231.894V1.92898C-231.894 1.20455 -232.092 0.68679 -232.488 0.37571C-232.885 0.0646304 -233.351 -0.0909095 -233.888 -0.0909095C-234.578 -0.0909095 -235.113 0.117897 -235.493 0.535511C-235.872 0.948863 -236.061 1.47301 -236.061 2.10795V8.5H-237.596V1.77557C-237.596 1.21733 -237.777 0.767756 -238.139 0.426846C-238.501 0.0816758 -238.968 -0.0909095 -239.539 -0.0909095C-239.931 -0.0909095 -240.297 0.0134939 -240.638 0.222301C-240.975 0.431108 -241.248 0.720881 -241.456 1.09162C-241.661 1.4581 -241.763 1.8821 -241.763 2.36364V8.5H-243.272ZM-223.511 8.70455C-224.457 8.70455 -225.273 8.49574 -225.959 8.07812C-226.641 7.65625 -227.167 7.06818 -227.538 6.31392C-227.904 5.5554 -228.087 4.6733 -228.087 3.66761C-228.087 2.66193 -227.904 1.77557 -227.538 1.00852C-227.167 0.237216 -226.651 -0.363636 -225.991 -0.794034C-225.326 -1.22869 -224.55 -1.44602 -223.664 -1.44602C-223.153 -1.44602 -222.648 -1.3608 -222.149 -1.19034C-221.651 -1.01989 -221.197 -0.742898 -220.788 -0.359375C-220.379 0.0198861 -220.053 0.522727 -219.81 1.14915C-219.567 1.77557 -219.445 2.54687 -219.445 3.46307V4.10227H-227.013V2.7983H-220.979C-220.979 2.24432 -221.09 1.75 -221.312 1.31534C-221.529 0.880681 -221.84 0.537642 -222.245 0.286221C-222.646 0.0348008 -223.119 -0.0909095 -223.664 -0.0909095C-224.265 -0.0909095 -224.785 0.0582383 -225.224 0.356534C-225.658 0.650568 -225.993 1.03409 -226.227 1.5071C-226.462 1.98011 -226.579 2.48722 -226.579 3.02841V3.89773C-226.579 4.6392 -226.451 5.26776 -226.195 5.78338C-225.935 6.29474 -225.575 6.68466 -225.115 6.95312C-224.655 7.21733 -224.12 7.34943 -223.511 7.34943C-223.114 7.34943 -222.756 7.29403 -222.437 7.18324C-222.113 7.06818 -221.834 6.89773 -221.599 6.67188C-221.365 6.44176 -221.184 6.15625 -221.056 5.81534L-219.599 6.22443C-219.752 6.71875 -220.01 7.15341 -220.372 7.52841C-220.734 7.89915 -221.182 8.18892 -221.714 8.39773C-222.247 8.60227 -222.846 8.70455 -223.511 8.70455ZM-175.909 8.5H-177.571L-172.764 -4.59091H-171.128L-166.321 8.5H-167.983L-171.895 -2.51989H-171.997L-175.909 8.5ZM-175.295 3.38636H-168.597V4.79261H-175.295V3.38636ZM-164.282 8.5V-4.59091H-162.773V0.241477H-162.646C-162.535 0.0710225 -162.381 -0.146307 -162.185 -0.410512C-161.985 -0.678977 -161.7 -0.917614 -161.329 -1.12642C-160.954 -1.33949 -160.447 -1.44602 -159.808 -1.44602C-158.981 -1.44602 -158.252 -1.23935 -157.621 -0.825995C-156.991 -0.412642 -156.499 0.173295 -156.145 0.931818C-155.791 1.69034 -155.614 2.58523 -155.614 3.61648C-155.614 4.65625 -155.791 5.55753 -156.145 6.32031C-156.499 7.07884 -156.989 7.6669 -157.615 8.08452C-158.241 8.49787 -158.964 8.70455 -159.782 8.70455C-160.413 8.70455 -160.918 8.60014 -161.297 8.39134C-161.676 8.17827 -161.968 7.9375 -162.173 7.66903C-162.377 7.39631 -162.535 7.17045 -162.646 6.99148H-162.825V8.5H-164.282ZM-162.799 3.59091C-162.799 4.33239 -162.69 4.98651 -162.473 5.55327C-162.256 6.11577 -161.938 6.55682 -161.521 6.87642C-161.103 7.19176 -160.592 7.34943 -159.987 7.34943C-159.356 7.34943 -158.83 7.18324 -158.408 6.85085C-157.982 6.5142 -157.662 6.0625 -157.449 5.49574C-157.232 4.92472 -157.123 4.28977 -157.123 3.59091C-157.123 2.90057 -157.229 2.27841 -157.442 1.72443C-157.651 1.16619 -157.969 0.725142 -158.395 0.401278C-158.817 0.073153 -159.347 -0.0909095 -159.987 -0.0909095C-160.6 -0.0909095 -161.116 0.0646304 -161.533 0.37571C-161.951 0.682528 -162.266 1.11293 -162.479 1.6669C-162.692 2.21662 -162.799 2.85795 -162.799 3.59091ZM-149.318 8.70455C-150.205 8.70455 -150.982 8.49361 -151.651 8.07173C-152.316 7.64986 -152.836 7.05966 -153.211 6.30114C-153.582 5.54261 -153.767 4.65625 -153.767 3.64205C-153.767 2.61932 -153.582 1.72656 -153.211 0.963778C-152.836 0.200994 -152.316 -0.391335 -151.651 -0.81321C-150.982 -1.23509 -150.205 -1.44602 -149.318 -1.44602C-148.432 -1.44602 -147.656 -1.23509 -146.991 -0.81321C-146.322 -0.391335 -145.803 0.200994 -145.432 0.963778C-145.057 1.72656 -144.869 2.61932 -144.869 3.64205C-144.869 4.65625 -145.057 5.54261 -145.432 6.30114C-145.803 7.05966 -146.322 7.64986 -146.991 8.07173C-147.656 8.49361 -148.432 8.70455 -149.318 8.70455ZM-149.318 7.34943C-148.645 7.34943 -148.091 7.17685 -147.656 6.83168C-147.222 6.48651 -146.9 6.03267 -146.691 5.47017C-146.482 4.90767 -146.378 4.2983 -146.378 3.64205C-146.378 2.9858 -146.482 2.37429 -146.691 1.80753C-146.9 1.24077 -147.222 0.78267 -147.656 0.433238C-148.091 0.0838064 -148.645 -0.0909095 -149.318 -0.0909095C-149.991 -0.0909095 -150.545 0.0838064 -150.98 0.433238C-151.415 0.78267 -151.737 1.24077 -151.945 1.80753C-152.154 2.37429 -152.259 2.9858 -152.259 3.64205C-152.259 4.2983 -152.154 4.90767 -151.945 5.47017C-151.737 6.03267 -151.415 6.48651 -150.98 6.83168C-150.545 7.17685 -149.991 7.34943 -149.318 7.34943ZM-136.379 4.4858V-1.31818H-134.871V8.5H-136.379V6.83807H-136.481C-136.711 7.33665 -137.069 7.76065 -137.555 8.11009C-138.041 8.45526 -138.655 8.62784 -139.396 8.62784C-140.01 8.62784 -140.555 8.49361 -141.032 8.22514C-141.51 7.95241 -141.885 7.54332 -142.157 6.99787C-142.43 6.44815 -142.567 5.75568 -142.567 4.92045V-1.31818H-141.058V4.81818C-141.058 5.53409 -140.858 6.10511 -140.457 6.53125C-140.052 6.95739 -139.537 7.17045 -138.91 7.17045C-138.535 7.17045 -138.154 7.07457 -137.766 6.88281C-137.374 6.69105 -137.046 6.39702 -136.782 6.00071C-136.513 5.6044 -136.379 5.09943 -136.379 4.4858ZM-127.838 -1.31818V-0.0397732H-132.926V-1.31818H-127.838ZM-131.443 -3.67045H-129.934V5.6875C-129.934 6.11364 -129.873 6.43324 -129.749 6.64631C-129.621 6.85511 -129.459 6.99574 -129.263 7.06818C-129.063 7.13636 -128.852 7.17045 -128.63 7.17045C-128.464 7.17045 -128.328 7.16193 -128.221 7.14489C-128.115 7.12358 -128.029 7.10653 -127.966 7.09375L-127.659 8.44886C-127.761 8.48722 -127.904 8.52557 -128.087 8.56392C-128.27 8.60653 -128.502 8.62784 -128.784 8.62784C-129.21 8.62784 -129.627 8.53622 -130.037 8.35298C-130.441 8.16974 -130.778 7.89062 -131.047 7.51562C-131.311 7.14062 -131.443 6.66761 -131.443 6.09659V-3.67045ZM-111.711 -4.59091H-110.125V4.0767C-110.125 4.97159 -110.336 5.7706 -110.758 6.47372C-111.176 7.17259 -111.766 7.72443 -112.529 8.12926C-113.292 8.52983 -114.186 8.73011 -115.213 8.73011C-116.24 8.73011 -117.135 8.52983 -117.898 8.12926C-118.661 7.72443 -119.253 7.17259 -119.675 6.47372C-120.093 5.7706 -120.301 4.97159 -120.301 4.0767V-4.59091H-118.716V3.94886C-118.716 4.58807 -118.576 5.15696 -118.294 5.65554C-118.013 6.14986 -117.613 6.53977 -117.093 6.82528C-116.569 7.10653 -115.942 7.24716 -115.213 7.24716C-114.485 7.24716 -113.858 7.10653 -113.334 6.82528C-112.81 6.53977 -112.409 6.14986 -112.132 5.65554C-111.851 5.15696 -111.711 4.58807 -111.711 3.94886V-4.59091ZM-100.21 0.880682L-101.565 1.2642C-101.65 1.03835 -101.776 0.818892 -101.942 0.605824C-102.104 0.388494 -102.325 0.209517 -102.607 0.0688917C-102.888 -0.0717333 -103.248 -0.142046 -103.687 -0.142046C-104.288 -0.142046 -104.789 -0.00355136 -105.189 0.273438C-105.585 0.546165 -105.784 0.893466 -105.784 1.31534C-105.784 1.69034 -105.647 1.98651 -105.374 2.20384C-105.102 2.42116 -104.676 2.60227 -104.096 2.74716L-102.639 3.10511C-101.761 3.31818 -101.107 3.64418 -100.676 4.0831C-100.246 4.51776 -100.031 5.07812 -100.031 5.7642C-100.031 6.3267 -100.193 6.82955 -100.517 7.27273C-100.836 7.71591 -101.284 8.06534 -101.859 8.32102C-102.434 8.5767 -103.103 8.70455 -103.866 8.70455C-104.867 8.70455 -105.696 8.48722 -106.352 8.05256C-107.009 7.6179 -107.424 6.98295 -107.599 6.14773L-106.167 5.78977C-106.031 6.31818 -105.773 6.71449 -105.394 6.97869C-105.01 7.2429 -104.509 7.375 -103.892 7.375C-103.188 7.375 -102.63 7.22585 -102.217 6.92756C-101.799 6.625 -101.59 6.26278 -101.59 5.84091C-101.59 5.5 -101.71 5.21449 -101.948 4.98438C-102.187 4.75 -102.553 4.57528 -103.048 4.46023L-104.684 4.0767C-105.583 3.86364 -106.244 3.53338 -106.666 3.08594C-107.083 2.63423 -107.292 2.0696 -107.292 1.39205C-107.292 0.838068 -107.137 0.348011 -106.825 -0.078125C-106.51 -0.504261 -106.082 -0.838779 -105.541 -1.08168C-104.995 -1.32457 -104.377 -1.44602 -103.687 -1.44602C-102.715 -1.44602 -101.953 -1.23295 -101.399 -0.806819C-100.84 -0.380682 -100.444 0.181818 -100.21 0.880682ZM-57.0554 8.5V-4.59091H-52.6321C-51.6051 -4.59091 -50.7656 -4.40554 -50.1136 -4.0348C-49.4574 -3.66832 -48.9716 -3.17188 -48.6562 -2.54545C-48.3409 -1.91903 -48.1832 -1.22017 -48.1832 -0.448864C-48.1832 0.322443 -48.3409 1.02344 -48.6562 1.65412C-48.9673 2.2848 -49.4489 2.78764 -50.1009 3.16264C-50.7528 3.53338 -51.5881 3.71875 -52.6065 3.71875H-55.777V2.3125H-52.6577C-51.9545 2.3125 -51.3899 2.19105 -50.9638 1.94815C-50.5376 1.70526 -50.2287 1.37713 -50.0369 0.963778C-49.8409 0.546165 -49.7429 0.0752839 -49.7429 -0.448864C-49.7429 -0.973011 -49.8409 -1.44176 -50.0369 -1.85511C-50.2287 -2.26847 -50.5398 -2.59233 -50.9702 -2.8267C-51.4006 -3.06534 -51.9716 -3.18466 -52.6832 -3.18466H-55.4702V8.5H-57.0554ZM-42.945 8.73011C-43.5671 8.73011 -44.1317 8.61293 -44.6388 8.37855C-45.146 8.13991 -45.5487 7.79688 -45.8469 7.34943C-46.1452 6.89773 -46.2944 6.35227 -46.2944 5.71307C-46.2944 5.15057 -46.1836 4.6946 -45.962 4.34517C-45.7404 3.99148 -45.4442 3.71449 -45.0735 3.5142C-44.7028 3.31392 -44.2937 3.16477 -43.8462 3.06676C-43.3945 2.96449 -42.9407 2.88352 -42.4847 2.82386C-41.8881 2.74716 -41.4045 2.68963 -41.0337 2.65128C-40.6587 2.60866 -40.386 2.53835 -40.2156 2.44034C-40.0408 2.34233 -39.9535 2.17187 -39.9535 1.92898V1.87784C-39.9535 1.24716 -40.1261 0.757102 -40.4712 0.40767C-40.8121 0.0582385 -41.3299 -0.116477 -42.0245 -0.116477C-42.7447 -0.116477 -43.3093 0.0411931 -43.7184 0.356534C-44.1275 0.671875 -44.4151 1.00852 -44.5813 1.36648L-46.0131 0.855113C-45.7575 0.258522 -45.4165 -0.205966 -44.9904 -0.538352C-44.56 -0.875 -44.0913 -1.10938 -43.5842 -1.24148C-43.0728 -1.37784 -42.57 -1.44602 -42.0756 -1.44602C-41.7603 -1.44602 -41.3981 -1.40767 -40.989 -1.33097C-40.5756 -1.25852 -40.1772 -1.10724 -39.7937 -0.877131C-39.4059 -0.647017 -39.0842 -0.299716 -38.8285 0.164773C-38.5728 0.629261 -38.445 1.25142 -38.445 2.03125V8.5H-39.9535V7.17045H-40.0302C-40.1325 7.38352 -40.3029 7.61151 -40.5415 7.8544C-40.7802 8.0973 -41.0977 8.30398 -41.494 8.47443C-41.8903 8.64489 -42.3739 8.73011 -42.945 8.73011ZM-42.7148 7.375C-42.1183 7.375 -41.6154 7.25781 -41.2063 7.02344C-40.793 6.78906 -40.4819 6.48651 -40.2731 6.11577C-40.06 5.74503 -39.9535 5.35511 -39.9535 4.94602V3.56534C-40.0174 3.64205 -40.158 3.71236 -40.3754 3.77628C-40.5884 3.83594 -40.8356 3.8892 -41.1168 3.93608C-41.3938 3.97869 -41.6644 4.01705 -41.9286 4.05114C-42.1886 4.08097 -42.3995 4.10653 -42.5614 4.12784C-42.9535 4.17898 -43.32 4.26207 -43.6609 4.37713C-43.9975 4.48793 -44.2702 4.65625 -44.479 4.8821C-44.6836 5.10369 -44.7859 5.40625 -44.7859 5.78977C-44.7859 6.31392 -44.592 6.71023 -44.2042 6.97869C-43.8121 7.2429 -43.3157 7.375 -42.7148 7.375ZM-31.7285 12.3864C-32.4572 12.3864 -33.0836 12.2926 -33.6078 12.1051C-34.1319 11.9219 -34.5687 11.679 -34.9181 11.3764C-35.2633 11.0781 -35.5382 10.7585 -35.7427 10.4176L-34.541 9.57386C-34.4047 9.75284 -34.2321 9.95739 -34.0233 10.1875C-33.8145 10.4219 -33.5289 10.6243 -33.1667 10.7947C-32.8002 10.9695 -32.3208 11.0568 -31.7285 11.0568C-30.9359 11.0568 -30.2818 10.8651 -29.7662 10.4815C-29.2505 10.098 -28.9927 9.49716 -28.9927 8.67898V6.68466H-29.1206C-29.2314 6.86364 -29.389 7.08523 -29.5936 7.34943C-29.7939 7.60938 -30.0836 7.84162 -30.4629 8.04616C-30.8379 8.24645 -31.345 8.34659 -31.9842 8.34659C-32.7768 8.34659 -33.4885 8.15909 -34.1191 7.78409C-34.7456 7.40909 -35.242 6.86364 -35.6085 6.14773C-35.9707 5.43182 -36.1518 4.5625 -36.1518 3.53977C-36.1518 2.53409 -35.975 1.65838 -35.6213 0.912642C-35.2676 0.162642 -34.7754 -0.416904 -34.1447 -0.825995C-33.514 -1.23935 -32.7853 -1.44602 -31.9586 -1.44602C-31.3194 -1.44602 -30.8123 -1.33949 -30.4373 -1.12642C-30.0581 -0.917614 -29.7683 -0.678977 -29.568 -0.410512C-29.3635 -0.146307 -29.2058 0.0710225 -29.095 0.241477H-28.9416V-1.31818H-27.4842V8.78125C-27.4842 9.625 -27.676 10.3111 -28.0595 10.8395C-28.4387 11.3722 -28.9501 11.7621 -29.5936 12.0092C-30.2328 12.2607 -30.9444 12.3864 -31.7285 12.3864ZM-31.7797 6.99148C-31.1745 6.99148 -30.6632 6.85298 -30.2456 6.57599C-29.8279 6.29901 -29.5105 5.90057 -29.2931 5.38068C-29.0758 4.8608 -28.9672 4.23864 -28.9672 3.5142C-28.9672 2.80682 -29.0737 2.18253 -29.2868 1.64134C-29.4998 1.10014 -29.8152 0.676136 -30.2328 0.369318C-30.6504 0.0624996 -31.166 -0.0909095 -31.7797 -0.0909095C-32.4189 -0.0909095 -32.9515 0.0710225 -33.3777 0.394886C-33.7995 0.71875 -34.117 1.15341 -34.3301 1.69886C-34.5389 2.24432 -34.6433 2.84943 -34.6433 3.5142C-34.6433 4.19602 -34.5368 4.79901 -34.3237 5.32315C-34.1064 5.84304 -33.7868 6.25213 -33.3649 6.55043C-32.9387 6.84446 -32.4103 6.99148 -31.7797 6.99148ZM-20.6064 8.70455C-21.5524 8.70455 -22.3684 8.49574 -23.0545 8.07812C-23.7363 7.65625 -24.2626 7.06818 -24.6333 6.31392C-24.9998 5.5554 -25.1831 4.6733 -25.1831 3.66761C-25.1831 2.66193 -24.9998 1.77557 -24.6333 1.00852C-24.2626 0.237216 -23.747 -0.363636 -23.0865 -0.794034C-22.4217 -1.22869 -21.6461 -1.44602 -20.7598 -1.44602C-20.2484 -1.44602 -19.7434 -1.3608 -19.2449 -1.19034C-18.7463 -1.01989 -18.2924 -0.742898 -17.8833 -0.359375C-17.4743 0.0198861 -17.1483 0.522727 -16.9054 1.14915C-16.6625 1.77557 -16.541 2.54687 -16.541 3.46307V4.10227H-24.1092V2.7983H-18.0751C-18.0751 2.24432 -18.1859 1.75 -18.4075 1.31534C-18.6248 0.880681 -18.9359 0.537642 -19.3407 0.286221C-19.7413 0.0348008 -20.2143 -0.0909095 -20.7598 -0.0909095C-21.3606 -0.0909095 -21.8805 0.0582383 -22.3194 0.356534C-22.7541 0.650568 -23.0886 1.03409 -23.323 1.5071C-23.5574 1.98011 -23.6745 2.48722 -23.6745 3.02841V3.89773C-23.6745 4.6392 -23.5467 5.26776 -23.291 5.78338C-23.0311 6.29474 -22.671 6.68466 -22.2108 6.95312C-21.7505 7.21733 -21.2157 7.34943 -20.6064 7.34943C-20.21 7.34943 -19.8521 7.29403 -19.5325 7.18324C-19.2086 7.06818 -18.9295 6.89773 -18.6951 6.67188C-18.4608 6.44176 -18.2797 6.15625 -18.1518 5.81534L-16.6944 6.22443C-16.8478 6.71875 -17.1056 7.15341 -17.4679 7.52841C-17.8301 7.89915 -18.2775 8.18892 -18.8102 8.39773C-19.3429 8.60227 -19.9416 8.70455 -20.6064 8.70455ZM-7.29173 0.880682L-8.64684 1.2642C-8.73207 1.03835 -8.85778 0.818892 -9.02397 0.605824C-9.1859 0.388494 -9.40749 0.209517 -9.68874 0.0688917C-9.96999 -0.0717333 -10.3301 -0.142046 -10.769 -0.142046C-11.3699 -0.142046 -11.8706 -0.00355136 -12.2711 0.273438C-12.6674 0.546165 -12.8656 0.893466 -12.8656 1.31534C-12.8656 1.69034 -12.7292 1.98651 -12.4565 2.20384C-12.1838 2.42116 -11.7576 2.60227 -11.1781 2.74716L-9.7207 3.10511C-8.84286 3.31818 -8.18874 3.64418 -7.75834 4.0831C-7.32795 4.51776 -7.11275 5.07812 -7.11275 5.7642C-7.11275 6.3267 -7.27468 6.82955 -7.59854 7.27273C-7.91815 7.71591 -8.36559 8.06534 -8.94087 8.32102C-9.51616 8.5767 -10.1852 8.70455 -10.948 8.70455C-11.9494 8.70455 -12.7782 8.48722 -13.4345 8.05256C-14.0907 7.6179 -14.5062 6.98295 -14.6809 6.14773L-13.2491 5.78977C-13.1127 6.31818 -12.8549 6.71449 -12.4757 6.97869C-12.0922 7.2429 -11.5914 7.375 -10.9735 7.375C-10.2704 7.375 -9.71218 7.22585 -9.29883 6.92756C-8.88121 6.625 -8.67241 6.26278 -8.67241 5.84091C-8.67241 5.5 -8.79173 5.21449 -9.03036 4.98438C-9.269 4.75 -9.63548 4.57528 -10.1298 4.46023L-11.7662 4.0767C-12.6653 3.86364 -13.3258 3.53338 -13.7477 3.08594C-14.1653 2.63423 -14.3741 2.0696 -14.3741 1.39205C-14.3741 0.838068 -14.2186 0.348011 -13.9075 -0.078125C-13.5922 -0.504261 -13.1639 -0.838779 -12.6227 -1.08168C-12.0772 -1.32457 -11.4593 -1.44602 -10.769 -1.44602C-9.79741 -1.44602 -9.03462 -1.23295 -8.48065 -0.806819C-7.92241 -0.380682 -7.5261 0.181818 -7.29173 0.880682ZM53.1467 -1.31818C53.07 -1.96591 52.7589 -2.46875 52.2134 -2.8267C51.668 -3.18466 50.9989 -3.36364 50.2063 -3.36364C49.6268 -3.36364 49.1197 -3.26989 48.685 -3.08239C48.2546 -2.89489 47.918 -2.63707 47.6751 -2.30895C47.4364 -1.98082 47.3171 -1.60796 47.3171 -1.19034C47.3171 -0.84091 47.4002 -0.540483 47.5664 -0.289062C47.7369 -0.0419037 47.9542 0.164772 48.2184 0.330966C48.4826 0.492897 48.7596 0.62713 49.0494 0.733664C49.3391 0.835937 49.6055 0.919034 49.8484 0.982954L51.1779 1.34091C51.5188 1.4304 51.8981 1.55398 52.3157 1.71165C52.7376 1.86932 53.1403 2.08452 53.5238 2.35724C53.9116 2.62571 54.2312 2.97088 54.4826 3.39276C54.734 3.81463 54.8597 4.33239 54.8597 4.94602C54.8597 5.65341 54.6744 6.29261 54.3036 6.86364C53.9371 7.43466 53.4002 7.88849 52.6928 8.22514C51.9897 8.56179 51.1353 8.73011 50.1296 8.73011C49.1921 8.73011 48.3803 8.57884 47.6942 8.27628C47.0124 7.97372 46.4755 7.55185 46.0835 7.01065C45.6957 6.46946 45.4762 5.84091 45.4251 5.125H47.0614C47.104 5.61932 47.2702 6.02841 47.56 6.35227C47.854 6.67187 48.2248 6.91051 48.6722 7.06818C49.1239 7.22159 49.6097 7.2983 50.1296 7.2983C50.7347 7.2983 51.2781 7.20028 51.7596 7.00426C52.2411 6.80398 52.6225 6.52699 52.9038 6.1733C53.185 5.81534 53.3256 5.39773 53.3256 4.92045C53.3256 4.4858 53.2042 4.1321 52.9613 3.85938C52.7184 3.58665 52.3988 3.36506 52.0025 3.1946C51.6062 3.02415 51.1779 2.875 50.7177 2.74716L49.1069 2.28693C48.0842 1.9929 47.2745 1.57315 46.6779 1.0277C46.0813 0.482244 45.783 -0.231534 45.783 -1.11364C45.783 -1.84659 45.9812 -2.4858 46.3775 -3.03125C46.7781 -3.58097 47.315 -4.0071 47.9883 -4.30966C48.6658 -4.61648 49.4222 -4.76989 50.2575 -4.76989C51.1012 -4.76989 51.8512 -4.61861 52.5075 -4.31605C53.1637 -4.01776 53.6836 -3.60867 54.0671 -3.08878C54.4549 -2.56889 54.6594 -1.97869 54.6808 -1.31818H53.1467ZM61.378 8.70455C60.432 8.70455 59.6159 8.49574 58.9299 8.07812C58.248 7.65625 57.7218 7.06818 57.351 6.31392C56.9846 5.5554 56.8013 4.6733 56.8013 3.66761C56.8013 2.66193 56.9846 1.77557 57.351 1.00852C57.7218 0.237216 58.2374 -0.363636 58.8979 -0.794034C59.5627 -1.22869 60.3382 -1.44602 61.2246 -1.44602C61.736 -1.44602 62.2409 -1.3608 62.7395 -1.19034C63.2381 -1.01989 63.6919 -0.742898 64.101 -0.359375C64.5101 0.0198861 64.8361 0.522727 65.079 1.14915C65.3219 1.77557 65.4434 2.54687 65.4434 3.46307V4.10227H57.8752V2.7983H63.9093C63.9093 2.24432 63.7985 1.75 63.5769 1.31534C63.3596 0.880681 63.0485 0.537642 62.6436 0.286221C62.2431 0.0348008 61.7701 -0.0909095 61.2246 -0.0909095C60.6238 -0.0909095 60.1039 0.0582383 59.665 0.356534C59.2303 0.650568 58.8958 1.03409 58.6614 1.5071C58.427 1.98011 58.3098 2.48722 58.3098 3.02841V3.89773C58.3098 4.6392 58.4377 5.26776 58.6934 5.78338C58.9533 6.29474 59.3134 6.68466 59.7736 6.95312C60.2338 7.21733 60.7686 7.34943 61.378 7.34943C61.7743 7.34943 62.1323 7.29403 62.4519 7.18324C62.7757 7.06818 63.0549 6.89773 63.2892 6.67188C63.5236 6.44176 63.7047 6.15625 63.8326 5.81534L65.29 6.22443C65.1365 6.71875 64.8787 7.15341 64.5165 7.52841C64.1543 7.89915 63.7069 8.18892 63.1742 8.39773C62.6415 8.60227 62.0428 8.70455 61.378 8.70455ZM67.7381 8.5V-1.31818H69.1955V0.164773H69.2978C69.4767 -0.321023 69.8006 -0.715199 70.2694 -1.01776C70.7381 -1.32031 71.2665 -1.47159 71.8546 -1.47159C71.9654 -1.47159 72.1039 -1.46946 72.2701 -1.4652C72.4363 -1.46094 72.562 -1.45455 72.6472 -1.44602V0.0880679C72.5961 0.0752838 72.4789 0.0561076 72.2956 0.0305393C72.1167 0.000709951 71.927 -0.0142047 71.7267 -0.0142047C71.2495 -0.0142047 70.8233 0.0859373 70.4483 0.286221C70.0776 0.482244 69.7836 0.754971 69.5662 1.1044C69.3532 1.44957 69.2466 1.84375 69.2466 2.28693V8.5H67.7381ZM82.7626 -1.31818L79.1319 8.5H77.5978L73.9672 -1.31818H75.6035L78.3137 6.50568H78.416L81.1262 -1.31818H82.7626ZM84.7537 8.5V-1.31818H86.2623V8.5H84.7537ZM85.5208 -2.95455C85.2267 -2.95455 84.9732 -3.05469 84.7601 -3.25497C84.5513 -3.45526 84.4469 -3.69602 84.4469 -3.97727C84.4469 -4.25852 84.5513 -4.49929 84.7601 -4.69957C84.9732 -4.89986 85.2267 -5 85.5208 -5C85.8148 -5 86.0662 -4.89986 86.275 -4.69957C86.4881 -4.49929 86.5946 -4.25852 86.5946 -3.97727C86.5946 -3.69602 86.4881 -3.45526 86.275 -3.25497C86.0662 -3.05469 85.8148 -2.95455 85.5208 -2.95455ZM93.0138 8.70455C92.0934 8.70455 91.3008 8.48722 90.636 8.05256C89.9712 7.6179 89.4599 7.01918 89.1019 6.25639C88.744 5.49361 88.565 4.62216 88.565 3.64205C88.565 2.64489 88.7482 1.76491 89.1147 1.00213C89.4854 0.235085 90.0011 -0.363636 90.6616 -0.794034C91.3263 -1.22869 92.1019 -1.44602 92.9883 -1.44602C93.6786 -1.44602 94.3008 -1.31818 94.8548 -1.0625C95.4087 -0.806818 95.8626 -0.448864 96.2163 0.0113631C96.57 0.471591 96.7894 1.00852 96.8746 1.62216H95.3661C95.2511 1.17472 94.9954 0.778409 94.5991 0.433238C94.207 0.0838064 93.6786 -0.0909095 93.0138 -0.0909095C92.4258 -0.0909095 91.9102 0.0624996 91.467 0.369318C91.0281 0.671875 90.685 1.10014 90.4379 1.65412C90.195 2.20383 90.0735 2.84943 90.0735 3.59091C90.0735 4.34943 90.1928 5.00994 90.4315 5.57244C90.6744 6.13494 91.0153 6.57173 91.4542 6.88281C91.8974 7.19389 92.4173 7.34943 93.0138 7.34943C93.4059 7.34943 93.7617 7.28125 94.0813 7.14489C94.4009 7.00852 94.6715 6.8125 94.8931 6.55682C95.1147 6.30114 95.2724 5.99432 95.3661 5.63636H96.8746C96.7894 6.21591 96.5785 6.73793 96.2418 7.20241C95.9094 7.66264 95.4684 8.02912 94.9187 8.30185C94.3732 8.57031 93.7383 8.70455 93.0138 8.70455ZM103.196 8.70455C102.25 8.70455 101.434 8.49574 100.748 8.07812C100.066 7.65625 99.5401 7.06818 99.1694 6.31392C98.8029 5.5554 98.6197 4.6733 98.6197 3.66761C98.6197 2.66193 98.8029 1.77557 99.1694 1.00852C99.5401 0.237216 100.056 -0.363636 100.716 -0.794034C101.381 -1.22869 102.157 -1.44602 103.043 -1.44602C103.554 -1.44602 104.059 -1.3608 104.558 -1.19034C105.056 -1.01989 105.51 -0.742898 105.919 -0.359375C106.328 0.0198861 106.654 0.522727 106.897 1.14915C107.14 1.77557 107.262 2.54687 107.262 3.46307V4.10227H99.6935V2.7983H105.728C105.728 2.24432 105.617 1.75 105.395 1.31534C105.178 0.880681 104.867 0.537642 104.462 0.286221C104.061 0.0348008 103.588 -0.0909095 103.043 -0.0909095C102.442 -0.0909095 101.922 0.0582383 101.483 0.356534C101.049 0.650568 100.714 1.03409 100.48 1.5071C100.245 1.98011 100.128 2.48722 100.128 3.02841V3.89773C100.128 4.6392 100.256 5.26776 100.512 5.78338C100.772 6.29474 101.132 6.68466 101.592 6.95312C102.052 7.21733 102.587 7.34943 103.196 7.34943C103.593 7.34943 103.951 7.29403 104.27 7.18324C104.594 7.06818 104.873 6.89773 105.108 6.67188C105.342 6.44176 105.523 6.15625 105.651 5.81534L107.108 6.22443C106.955 6.71875 106.697 7.15341 106.335 7.52841C105.973 7.89915 105.525 8.18892 104.993 8.39773C104.46 8.60227 103.861 8.70455 103.196 8.70455ZM116.511 0.880682L115.156 1.2642C115.071 1.03835 114.945 0.818892 114.779 0.605824C114.617 0.388494 114.395 0.209517 114.114 0.0688917C113.833 -0.0717333 113.473 -0.142046 113.034 -0.142046C112.433 -0.142046 111.932 -0.00355136 111.532 0.273438C111.135 0.546165 110.937 0.893466 110.937 1.31534C110.937 1.69034 111.074 1.98651 111.346 2.20384C111.619 2.42116 112.045 2.60227 112.625 2.74716L114.082 3.10511C114.96 3.31818 115.614 3.64418 116.044 4.0831C116.475 4.51776 116.69 5.07812 116.69 5.7642C116.69 6.3267 116.528 6.82955 116.204 7.27273C115.885 7.71591 115.437 8.06534 114.862 8.32102C114.287 8.5767 113.618 8.70455 112.855 8.70455C111.853 8.70455 111.025 8.48722 110.368 8.05256C109.712 7.6179 109.297 6.98295 109.122 6.14773L110.554 5.78977C110.69 6.31818 110.948 6.71449 111.327 6.97869C111.711 7.2429 112.211 7.375 112.829 7.375C113.532 7.375 114.091 7.22585 114.504 6.92756C114.922 6.625 115.13 6.26278 115.13 5.84091C115.13 5.5 115.011 5.21449 114.772 4.98438C114.534 4.75 114.167 4.57528 113.673 4.46023L112.037 4.0767C111.137 3.86364 110.477 3.53338 110.055 3.08594C109.637 2.63423 109.429 2.0696 109.429 1.39205C109.429 0.838068 109.584 0.348011 109.895 -0.078125C110.211 -0.504261 110.639 -0.838779 111.18 -1.08168C111.725 -1.32457 112.343 -1.44602 113.034 -1.44602C114.005 -1.44602 114.768 -1.23295 115.322 -0.806819C115.88 -0.380682 116.277 0.181818 116.511 0.880682ZM159.665 8.5V-4.59091H164.242C165.154 -4.59091 165.906 -4.43324 166.498 -4.1179C167.091 -3.80682 167.532 -3.38707 167.822 -2.85866C168.111 -2.33452 168.256 -1.75284 168.256 -1.11364C168.256 -0.551137 168.156 -0.0866482 167.956 0.279829C167.76 0.646307 167.5 0.936079 167.176 1.14915C166.856 1.36222 166.509 1.51989 166.134 1.62216V1.75C166.535 1.77557 166.937 1.91619 167.342 2.17188C167.747 2.42756 168.086 2.79403 168.358 3.27131C168.631 3.74858 168.768 4.33239 168.768 5.02273C168.768 5.67898 168.618 6.26918 168.32 6.79332C168.022 7.31747 167.551 7.73295 166.907 8.03977C166.264 8.34659 165.427 8.5 164.395 8.5H159.665ZM161.251 7.09375H164.395C165.431 7.09375 166.166 6.89347 166.601 6.4929C167.04 6.08807 167.259 5.59801 167.259 5.02273C167.259 4.57955 167.146 4.17045 166.92 3.79545C166.694 3.41619 166.373 3.11364 165.955 2.88778C165.537 2.65767 165.043 2.54261 164.472 2.54261H161.251V7.09375ZM161.251 1.16193H164.191C164.668 1.16193 165.099 1.06818 165.482 0.880682C165.87 0.693182 166.177 0.428977 166.403 0.0880679C166.633 -0.252841 166.748 -0.653409 166.748 -1.11364C166.748 -1.68892 166.547 -2.17685 166.147 -2.57741C165.746 -2.98224 165.111 -3.18466 164.242 -3.18466H161.251V1.16193ZM172.676 -4.59091V8.5H171.168V-4.59091H172.676ZM179.428 8.70455C178.542 8.70455 177.764 8.49361 177.095 8.07173C176.43 7.64986 175.91 7.05966 175.535 6.30114C175.164 5.54261 174.979 4.65625 174.979 3.64205C174.979 2.61932 175.164 1.72656 175.535 0.963778C175.91 0.200994 176.43 -0.391335 177.095 -0.81321C177.764 -1.23509 178.542 -1.44602 179.428 -1.44602C180.314 -1.44602 181.09 -1.23509 181.755 -0.81321C182.424 -0.391335 182.944 0.200994 183.314 0.963778C183.689 1.72656 183.877 2.61932 183.877 3.64205C183.877 4.65625 183.689 5.54261 183.314 6.30114C182.944 7.05966 182.424 7.64986 181.755 8.07173C181.09 8.49361 180.314 8.70455 179.428 8.70455ZM179.428 7.34943C180.101 7.34943 180.655 7.17685 181.09 6.83168C181.525 6.48651 181.846 6.03267 182.055 5.47017C182.264 4.90767 182.368 4.2983 182.368 3.64205C182.368 2.9858 182.264 2.37429 182.055 1.80753C181.846 1.24077 181.525 0.78267 181.09 0.433238C180.655 0.0838064 180.101 -0.0909095 179.428 -0.0909095C178.755 -0.0909095 178.201 0.0838064 177.766 0.433238C177.331 0.78267 177.01 1.24077 176.801 1.80753C176.592 2.37429 176.488 2.9858 176.488 3.64205C176.488 4.2983 176.592 4.90767 176.801 5.47017C177.01 6.03267 177.331 6.48651 177.766 6.83168C178.201 7.17685 178.755 7.34943 179.428 7.34943ZM190.143 12.3864C189.414 12.3864 188.787 12.2926 188.263 12.1051C187.739 11.9219 187.302 11.679 186.953 11.3764C186.608 11.0781 186.333 10.7585 186.128 10.4176L187.33 9.57386C187.466 9.75284 187.639 9.95739 187.848 10.1875C188.057 10.4219 188.342 10.6243 188.704 10.7947C189.071 10.9695 189.55 11.0568 190.143 11.0568C190.935 11.0568 191.589 10.8651 192.105 10.4815C192.621 10.098 192.878 9.49716 192.878 8.67898V6.68466H192.751C192.64 6.86364 192.482 7.08523 192.278 7.34943C192.077 7.60938 191.787 7.84162 191.408 8.04616C191.033 8.24645 190.526 8.34659 189.887 8.34659C189.094 8.34659 188.383 8.15909 187.752 7.78409C187.126 7.40909 186.629 6.86364 186.263 6.14773C185.9 5.43182 185.719 4.5625 185.719 3.53977C185.719 2.53409 185.896 1.65838 186.25 0.912642C186.604 0.162642 187.096 -0.416904 187.726 -0.825995C188.357 -1.23935 189.086 -1.44602 189.912 -1.44602C190.552 -1.44602 191.059 -1.33949 191.434 -1.12642C191.813 -0.917614 192.103 -0.678977 192.303 -0.410512C192.508 -0.146307 192.665 0.0710225 192.776 0.241477H192.93V-1.31818H194.387V8.78125C194.387 9.625 194.195 10.3111 193.812 10.8395C193.432 11.3722 192.921 11.7621 192.278 12.0092C191.638 12.2607 190.927 12.3864 190.143 12.3864ZM190.091 6.99148C190.697 6.99148 191.208 6.85298 191.626 6.57599C192.043 6.29901 192.361 5.90057 192.578 5.38068C192.795 4.8608 192.904 4.23864 192.904 3.5142C192.904 2.80682 192.797 2.18253 192.584 1.64134C192.371 1.10014 192.056 0.676136 191.638 0.369318C191.221 0.0624996 190.705 -0.0909095 190.091 -0.0909095C189.452 -0.0909095 188.92 0.0710225 188.493 0.394886C188.072 0.71875 187.754 1.15341 187.541 1.69886C187.332 2.24432 187.228 2.84943 187.228 3.5142C187.228 4.19602 187.334 4.79901 187.547 5.32315C187.765 5.84304 188.084 6.25213 188.506 6.55043C188.932 6.84446 189.461 6.99148 190.091 6.99148ZM248.387 -0.5H246.802C246.708 -0.955966 246.544 -1.35653 246.309 -1.7017C246.079 -2.04688 245.798 -2.33665 245.466 -2.57102C245.138 -2.80966 244.773 -2.98864 244.373 -3.10795C243.972 -3.22727 243.555 -3.28693 243.12 -3.28693C242.327 -3.28693 241.609 -3.08665 240.966 -2.68608C240.327 -2.28551 239.817 -1.69531 239.438 -0.915483C239.063 -0.135653 238.876 0.821023 238.876 1.95455C238.876 3.08807 239.063 4.04474 239.438 4.82457C239.817 5.6044 240.327 6.1946 240.966 6.59517C241.609 6.99574 242.327 7.19602 243.12 7.19602C243.555 7.19602 243.972 7.13636 244.373 7.01705C244.773 6.89773 245.138 6.72088 245.466 6.48651C245.798 6.24787 246.079 5.95597 246.309 5.6108C246.544 5.26136 246.708 4.8608 246.802 4.40909H248.387C248.268 5.07812 248.05 5.67685 247.735 6.20526C247.42 6.73366 247.028 7.18324 246.559 7.55398C246.09 7.92045 245.564 8.19957 244.98 8.39134C244.4 8.5831 243.78 8.67898 243.12 8.67898C242.003 8.67898 241.01 8.40625 240.141 7.8608C239.272 7.31534 238.588 6.53977 238.089 5.53409C237.591 4.52841 237.341 3.33523 237.341 1.95455C237.341 0.573864 237.591 -0.619318 238.089 -1.625C238.588 -2.63068 239.272 -3.40625 240.141 -3.9517C241.01 -4.49716 242.003 -4.76989 243.12 -4.76989C243.78 -4.76989 244.4 -4.67401 244.98 -4.48224C245.564 -4.29048 246.09 -4.00923 246.559 -3.63849C247.028 -3.27202 247.42 -2.82457 247.735 -2.29616C248.05 -1.77202 248.268 -1.1733 248.387 -0.5ZM254.733 8.70455C253.846 8.70455 253.069 8.49361 252.4 8.07173C251.735 7.64986 251.215 7.05966 250.84 6.30114C250.469 5.54261 250.284 4.65625 250.284 3.64205C250.284 2.61932 250.469 1.72656 250.84 0.963778C251.215 0.200994 251.735 -0.391335 252.4 -0.81321C253.069 -1.23509 253.846 -1.44602 254.733 -1.44602C255.619 -1.44602 256.395 -1.23509 257.059 -0.81321C257.728 -0.391335 258.248 0.200994 258.619 0.963778C258.994 1.72656 259.181 2.61932 259.181 3.64205C259.181 4.65625 258.994 5.54261 258.619 6.30114C258.248 7.05966 257.728 7.64986 257.059 8.07173C256.395 8.49361 255.619 8.70455 254.733 8.70455ZM254.733 7.34943C255.406 7.34943 255.96 7.17685 256.395 6.83168C256.829 6.48651 257.151 6.03267 257.36 5.47017C257.569 4.90767 257.673 4.2983 257.673 3.64205C257.673 2.9858 257.569 2.37429 257.36 1.80753C257.151 1.24077 256.829 0.78267 256.395 0.433238C255.96 0.0838064 255.406 -0.0909095 254.733 -0.0909095C254.059 -0.0909095 253.505 0.0838064 253.071 0.433238C252.636 0.78267 252.314 1.24077 252.105 1.80753C251.897 2.37429 251.792 2.9858 251.792 3.64205C251.792 4.2983 251.897 4.90767 252.105 5.47017C252.314 6.03267 252.636 6.48651 253.071 6.83168C253.505 7.17685 254.059 7.34943 254.733 7.34943ZM262.993 2.59375V8.5H261.484V-1.31818H262.942V0.215909H263.069C263.3 -0.28267 263.649 -0.683239 264.118 -0.985795C264.586 -1.29261 265.192 -1.44602 265.933 -1.44602C266.598 -1.44602 267.18 -1.30966 267.678 -1.03693C268.177 -0.768466 268.564 -0.359375 268.841 0.190341C269.118 0.735795 269.257 1.42614 269.257 2.26136V8.5H267.748V2.36364C267.748 1.59233 267.548 0.991477 267.148 0.561079C266.747 0.12642 266.197 -0.0909095 265.498 -0.0909095C265.017 -0.0909095 264.586 0.0134939 264.207 0.222301C263.832 0.431108 263.536 0.735795 263.319 1.13636C263.101 1.53693 262.993 2.02273 262.993 2.59375ZM276.283 -1.31818V-0.0397732H271.195V-1.31818H276.283ZM272.678 -3.67045H274.187V5.6875C274.187 6.11364 274.249 6.43324 274.372 6.64631C274.5 6.85511 274.662 6.99574 274.858 7.06818C275.058 7.13636 275.269 7.17045 275.491 7.17045C275.657 7.17045 275.793 7.16193 275.9 7.14489C276.006 7.12358 276.092 7.10653 276.156 7.09375L276.462 8.44886C276.36 8.48722 276.217 8.52557 276.034 8.56392C275.851 8.60653 275.619 8.62784 275.337 8.62784C274.911 8.62784 274.494 8.53622 274.085 8.35298C273.68 8.16974 273.343 7.89062 273.075 7.51562C272.81 7.14062 272.678 6.66761 272.678 6.09659V-3.67045ZM281.442 8.73011C280.82 8.73011 280.255 8.61293 279.748 8.37855C279.241 8.13991 278.838 7.79688 278.54 7.34943C278.241 6.89773 278.092 6.35227 278.092 5.71307C278.092 5.15057 278.203 4.6946 278.425 4.34517C278.646 3.99148 278.942 3.71449 279.313 3.5142C279.684 3.31392 280.093 3.16477 280.54 3.06676C280.992 2.96449 281.446 2.88352 281.902 2.82386C282.499 2.74716 282.982 2.68963 283.353 2.65128C283.728 2.60866 284.001 2.53835 284.171 2.44034C284.346 2.34233 284.433 2.17187 284.433 1.92898V1.87784C284.433 1.24716 284.261 0.757102 283.915 0.40767C283.575 0.0582385 283.057 -0.116477 282.362 -0.116477C281.642 -0.116477 281.077 0.0411931 280.668 0.356534C280.259 0.671875 279.972 1.00852 279.805 1.36648L278.374 0.855113C278.629 0.258522 278.97 -0.205966 279.396 -0.538352C279.827 -0.875 280.295 -1.10938 280.803 -1.24148C281.314 -1.37784 281.817 -1.44602 282.311 -1.44602C282.626 -1.44602 282.989 -1.40767 283.398 -1.33097C283.811 -1.25852 284.21 -1.10724 284.593 -0.877131C284.981 -0.647017 285.303 -0.299716 285.558 0.164773C285.814 0.629261 285.942 1.25142 285.942 2.03125V8.5H284.433V7.17045H284.357C284.254 7.38352 284.084 7.61151 283.845 7.8544C283.607 8.0973 283.289 8.30398 282.893 8.47443C282.496 8.64489 282.013 8.73011 281.442 8.73011ZM281.672 7.375C282.268 7.375 282.771 7.25781 283.18 7.02344C283.594 6.78906 283.905 6.48651 284.114 6.11577C284.327 5.74503 284.433 5.35511 284.433 4.94602V3.56534C284.369 3.64205 284.229 3.71236 284.011 3.77628C283.798 3.83594 283.551 3.8892 283.27 3.93608C282.993 3.97869 282.722 4.01705 282.458 4.05114C282.198 4.08097 281.987 4.10653 281.825 4.12784C281.433 4.17898 281.067 4.26207 280.726 4.37713C280.389 4.48793 280.116 4.65625 279.908 4.8821C279.703 5.10369 279.601 5.40625 279.601 5.78977C279.601 6.31392 279.795 6.71023 280.183 6.97869C280.575 7.2429 281.071 7.375 281.672 7.375ZM292.684 8.70455C291.763 8.70455 290.971 8.48722 290.306 8.05256C289.641 7.6179 289.13 7.01918 288.772 6.25639C288.414 5.49361 288.235 4.62216 288.235 3.64205C288.235 2.64489 288.418 1.76491 288.785 1.00213C289.155 0.235085 289.671 -0.363636 290.331 -0.794034C290.996 -1.22869 291.772 -1.44602 292.658 -1.44602C293.349 -1.44602 293.971 -1.31818 294.525 -1.0625C295.079 -0.806818 295.532 -0.448864 295.886 0.0113631C296.24 0.471591 296.459 1.00852 296.545 1.62216H295.036C294.921 1.17472 294.665 0.778409 294.269 0.433238C293.877 0.0838064 293.349 -0.0909095 292.684 -0.0909095C292.096 -0.0909095 291.58 0.0624996 291.137 0.369318C290.698 0.671875 290.355 1.10014 290.108 1.65412C289.865 2.20383 289.743 2.84943 289.743 3.59091C289.743 4.34943 289.863 5.00994 290.101 5.57244C290.344 6.13494 290.685 6.57173 291.124 6.88281C291.567 7.19389 292.087 7.34943 292.684 7.34943C293.076 7.34943 293.432 7.28125 293.751 7.14489C294.071 7.00852 294.341 6.8125 294.563 6.55682C294.785 6.30114 294.942 5.99432 295.036 5.63636H296.545C296.459 6.21591 296.248 6.73793 295.912 7.20241C295.579 7.66264 295.138 8.02912 294.589 8.30185C294.043 8.57031 293.408 8.70455 292.684 8.70455ZM303.02 -1.31818V-0.0397732H297.932V-1.31818H303.02ZM299.415 -3.67045H300.923V5.6875C300.923 6.11364 300.985 6.43324 301.108 6.64631C301.236 6.85511 301.398 6.99574 301.594 7.06818C301.795 7.13636 302.006 7.17045 302.227 7.17045C302.393 7.17045 302.53 7.16193 302.636 7.14489C302.743 7.12358 302.828 7.10653 302.892 7.09375L303.199 8.44886C303.096 8.48722 302.954 8.52557 302.77 8.56392C302.587 8.60653 302.355 8.62784 302.074 8.62784C301.648 8.62784 301.23 8.53622 300.821 8.35298C300.416 8.16974 300.079 7.89062 299.811 7.51562C299.547 7.14062 299.415 6.66761 299.415 6.09659V-3.67045ZM319.147 -4.59091H320.732V4.0767C320.732 4.97159 320.521 5.7706 320.099 6.47372C319.682 7.17259 319.091 7.72443 318.329 8.12926C317.566 8.52983 316.671 8.73011 315.644 8.73011C314.617 8.73011 313.722 8.52983 312.959 8.12926C312.197 7.72443 311.604 7.17259 311.182 6.47372C310.765 5.7706 310.556 4.97159 310.556 4.0767V-4.59091H312.141V3.94886C312.141 4.58807 312.282 5.15696 312.563 5.65554C312.844 6.14986 313.245 6.53977 313.765 6.82528C314.289 7.10653 314.915 7.24716 315.644 7.24716C316.373 7.24716 316.999 7.10653 317.523 6.82528C318.047 6.53977 318.448 6.14986 318.725 5.65554C319.006 5.15696 319.147 4.58807 319.147 3.94886V-4.59091ZM330.648 0.880682L329.293 1.2642C329.207 1.03835 329.082 0.818892 328.915 0.605824C328.754 0.388494 328.532 0.209517 328.251 0.0688917C327.969 -0.0717333 327.609 -0.142046 327.17 -0.142046C326.57 -0.142046 326.069 -0.00355136 325.668 0.273438C325.272 0.546165 325.074 0.893466 325.074 1.31534C325.074 1.69034 325.21 1.98651 325.483 2.20384C325.756 2.42116 326.182 2.60227 326.761 2.74716L328.219 3.10511C329.097 3.31818 329.751 3.64418 330.181 4.0831C330.612 4.51776 330.827 5.07812 330.827 5.7642C330.827 6.3267 330.665 6.82955 330.341 7.27273C330.021 7.71591 329.574 8.06534 328.999 8.32102C328.423 8.5767 327.754 8.70455 326.991 8.70455C325.99 8.70455 325.161 8.48722 324.505 8.05256C323.849 7.6179 323.433 6.98295 323.259 6.14773L324.69 5.78977C324.827 6.31818 325.085 6.71449 325.464 6.97869C325.847 7.2429 326.348 7.375 326.966 7.375C327.669 7.375 328.227 7.22585 328.641 6.92756C329.058 6.625 329.267 6.26278 329.267 5.84091C329.267 5.5 329.148 5.21449 328.909 4.98438C328.67 4.75 328.304 4.57528 327.81 4.46023L326.173 4.0767C325.274 3.86364 324.614 3.53338 324.192 3.08594C323.774 2.63423 323.565 2.0696 323.565 1.39205C323.565 0.838068 323.721 0.348011 324.032 -0.078125C324.347 -0.504261 324.776 -0.838779 325.317 -1.08168C325.862 -1.32457 326.48 -1.44602 327.17 -1.44602C328.142 -1.44602 328.905 -1.23295 329.459 -0.806819C330.017 -0.380682 330.413 0.181818 330.648 0.880682Z" fill="#37393F"/>
</g>
</g>
</g>
</g>
</g>
<defs>
<clipPath id="clip0_1_6">
<rect width="1920" height="9954" fill="white" transform="translate(-1014 -160)"/>
</clipPath>
</defs>
</svg>
